{
  "asset": {
    "version": "2.0",
    "generator": "THREE.GLTFExporter"
  },
  "scenes": [
    {
      "nodes": [
        12
      ],
      "name": "OSG_Scene"
    }
  ],
  "scene": 0,
  "nodes": [
    {
      "mesh": 0
    },
    {
      "mesh": 1
    },
    {
      "mesh": 2
    },
    {
      "mesh": 3
    },
    {
      "mesh": 4
    },
    {
      "mesh": 5
    },
    {
      "mesh": 6
    },
    {
      "mesh": 7
    },
    {
      "mesh": 8
    },
    {
      "mesh": 9
    },
    {
      "name": "Shirt01objcleaner",
      "children": [
        0,
        1,
        2,
        3,
        4,
        5,
        6,
        7,
        8,
        9
      ]
    },
    {
      "name": "RootNode_(model_correction_matrix)",
      "children": [
        10
      ]
    },
    {
      "matrix": [
        1,
        0,
        0,
        0,
        0,
        2.220446049250313e-16,
        -1,
        0,
        0,
        1,
        2.220446049250313e-16,
        0,
        0,
        0,
        0,
        1
      ],
      "name": "RootNode_(gltf_orientation_matrix)",
      "children": [
        11
      ]
    }
  ],
  "meshes": [
    {
      "primitives": [
        {
          "mode": 4,
          "attributes": {
            "NORMAL": 0,
            "POSITION": 1,
            "TEXCOORD_0": 2
          },
          "material": 0,
          "indices": 3
        }
      ]
    },
    {
      "primitives": [
        {
          "mode": 4,
          "attributes": {
            "NORMAL": 4,
            "POSITION": 5,
            "TEXCOORD_0": 6
          },
          "material": 1,
          "indices": 7
        }
      ]
    },
    {
      "primitives": [
        {
          "mode": 4,
          "attributes": {
            "NORMAL": 8,
            "POSITION": 9,
            "TEXCOORD_0": 10
          },
          "material": 1,
          "indices": 11
        }
      ]
    },
    {
      "primitives": [
        {
          "mode": 4,
          "attributes": {
            "NORMAL": 12,
            "POSITION": 13,
            "TEXCOORD_0": 14
          },
          "material": 1,
          "indices": 15
        }
      ]
    },
    {
      "primitives": [
        {
          "mode": 4,
          "attributes": {
            "NORMAL": 16,
            "POSITION": 17,
            "TEXCOORD_0": 18
          },
          "material": 1,
          "indices": 19
        }
      ]
    },
    {
      "primitives": [
        {
          "mode": 4,
          "attributes": {
            "NORMAL": 20,
            "POSITION": 21,
            "TEXCOORD_0": 22
          },
          "material": 1,
          "indices": 23
        }
      ]
    },
    {
      "primitives": [
        {
          "mode": 4,
          "attributes": {
            "NORMAL": 24,
            "POSITION": 25,
            "TEXCOORD_0": 26
          },
          "material": 1,
          "indices": 27
        }
      ]
    },
    {
      "primitives": [
        {
          "mode": 4,
          "attributes": {
            "NORMAL": 28,
            "POSITION": 29,
            "TEXCOORD_0": 30
          },
          "material": 1,
          "indices": 31
        }
      ]
    },
    {
      "primitives": [
        {
          "mode": 4,
          "attributes": {
            "NORMAL": 32,
            "POSITION": 33,
            "TEXCOORD_0": 34
          },
          "material": 1,
          "indices": 35
        }
      ]
    },
    {
      "primitives": [
        {
          "mode": 4,
          "attributes": {
            "NORMAL": 36,
            "POSITION": 37,
            "TEXCOORD_0": 38
          },
          "material": 1,
          "indices": 39
        }
      ]
    }
  ],
  "accessors": [
    {
      "bufferView": 0,
      "componentType": 5126,
      "count": 651,
      "max": [
        0.9799574613571167,
        0.9997854828834534,
        0.9662551283836365
      ],
      "min": [
        -0.9358279705047607,
        -0.9997541308403015,
        -0.9544379711151123
      ],
      "type": "VEC3"
    },
    {
      "bufferView": 1,
      "componentType": 5126,
      "count": 651,
      "max": [
        0.012480000033974648,
        -0.064069002866745,
        1.64552903175354
      ],
      "min": [
        -0.008098999969661236,
        -0.15292400121688843,
        1.183709979057312
      ],
      "type": "VEC3"
    },
    {
      "bufferView": 2,
      "componentType": 5126,
      "count": 651,
      "max": [
        0.4503540098667145,
        0.5837820172309875
      ],
      "min": [
        0.029527999460697174,
        0.028006000444293022
      ],
      "type": "VEC2"
    },
    {
      "bufferView": 3,
      "componentType": 5125,
      "count": 1680,
      "max": [
        650
      ],
      "min": [
        0
      ],
      "type": "SCALAR"
    },
    {
      "bufferView": 4,
      "componentType": 5126,
      "count": 1623,
      "max": [
        0.9982907772064209,
        0.9959891438484192,
        0.9952197670936584
      ],
      "min": [
        -0.9996598958969116,
        -0.9995135068893433,
        -0.995327889919281
      ],
      "type": "VEC3"
    },
    {
      "bufferView": 5,
      "componentType": 5126,
      "count": 1623,
      "max": [
        0.06956099718809128,
        0.06065800040960312,
        1.7068090438842773
      ],
      "min": [
        -0.06887300312519073,
        -0.08505699783563614,
        1.5838979482650757
      ],
      "type": "VEC3"
    },
    {
      "bufferView": 6,
      "componentType": 5126,
      "count": 1623,
      "max": [
        0.6016510128974915,
        0.6474469900131226
      ],
      "min": [
        0.3412719964981079,
        0.5518450140953064
      ],
      "type": "VEC2"
    },
    {
      "bufferView": 7,
      "componentType": 5125,
      "count": 7320,
      "max": [
        1622
      ],
      "min": [
        0
      ],
      "type": "SCALAR"
    },
    {
      "bufferView": 8,
      "componentType": 5126,
      "count": 1085,
      "max": [
        0.9999760985374451,
        0.9818662405014038,
        0.9048798680305481
      ],
      "min": [
        -0.999974250793457,
        -0.9811134934425354,
        -0.9852051138877869
      ],
      "type": "VEC3"
    },
    {
      "bufferView": 9,
      "componentType": 5126,
      "count": 1085,
      "max": [
        0.30804499983787537,
        -0.01164500042796135,
        1.215319037437439
      ],
      "min": [
        0.20978300273418427,
        -0.1347389966249466,
        1.0966540575027466
      ],
      "type": "VEC3"
    },
    {
      "bufferView": 10,
      "componentType": 5126,
      "count": 1085,
      "max": [
        0.22715100646018982,
        0.5910410284996033
      ],
      "min": [
        0.03576299920678139,
        0.5379760265350342
      ],
      "type": "VEC2"
    },
    {
      "bufferView": 11,
      "componentType": 5125,
      "count": 5496,
      "max": [
        1084
      ],
      "min": [
        0
      ],
      "type": "SCALAR"
    },
    {
      "bufferView": 12,
      "componentType": 5126,
      "count": 1097,
      "max": [
        0.9978218674659729,
        0.9941814541816711,
        0.9057562351226807
      ],
      "min": [
        -0.9978234767913818,
        -0.9934242367744446,
        -0.9982485175132751
      ],
      "type": "VEC3"
    },
    {
      "bufferView": 13,
      "componentType": 5126,
      "count": 1097,
      "max": [
        -0.22951599955558777,
        -0.0069969999603927135,
        1.2099820375442505
      ],
      "min": [
        -0.3317599892616272,
        -0.13096900284290314,
        1.0920629501342773
      ],
      "type": "VEC3"
    },
    {
      "bufferView": 14,
      "componentType": 5126,
      "count": 1097,
      "max": [
        0.8755859732627869,
        0.5980370044708252
      ],
      "min": [
        0.6841980218887329,
        0.5449709892272949
      ],
      "type": "VEC2"
    },
    {
      "bufferView": 15,
      "componentType": 5125,
      "count": 5568,
      "max": [
        1096
      ],
      "min": [
        0
      ],
      "type": "SCALAR"
    },
    {
      "bufferView": 16,
      "componentType": 5126,
      "count": 1375,
      "max": [
        0.9875591397285461,
        0.9115587472915649,
        0.9634174704551697
      ],
      "min": [
        -0.9862344861030579,
        -0.9967156648635864,
        -0.9634581208229065
      ],
      "type": "VEC3"
    },
    {
      "bufferView": 17,
      "componentType": 5126,
      "count": 1375,
      "max": [
        0.18465399742126465,
        0.09791000187397003,
        1.6639039516448975
      ],
      "min": [
        -0.18882499635219574,
        0.00979399960488081,
        1.5630320310592651
      ],
      "type": "VEC3"
    },
    {
      "bufferView": 18,
      "componentType": 5126,
      "count": 1375,
      "max": [
        0.5248619914054871,
        0.4989440143108368
      ],
      "min": [
        0.3206140100955963,
        0.41951701045036316
      ],
      "type": "VEC2"
    },
    {
      "bufferView": 19,
      "componentType": 5125,
      "count": 6960,
      "max": [
        1374
      ],
      "min": [
        0
      ],
      "type": "SCALAR"
    },
    {
      "bufferView": 20,
      "componentType": 5126,
      "count": 5186,
      "max": [
        0.9961112141609192,
        0.9999374747276306,
        0.9970831274986267
      ],
      "min": [
        -0.9999834895133972,
        -0.9999376535415649,
        -0.9990167617797852
      ],
      "type": "VEC3"
    },
    {
      "bufferView": 21,
      "componentType": 5126,
      "count": 5186,
      "max": [
        0.1972229927778244,
        0.015742000192403793,
        1.653210997581482
      ],
      "min": [
        -0.01672299951314926,
        -0.15986299514770508,
        1.057744026184082
      ],
      "type": "VEC3"
    },
    {
      "bufferView": 22,
      "componentType": 5126,
      "count": 5186,
      "max": [
        0.2186959981918335,
        0.4308350086212158
      ],
      "min": [
        0.06647399812936783,
        0.013124000281095505
      ],
      "type": "VEC2"
    },
    {
      "bufferView": 23,
      "componentType": 5125,
      "count": 28500,
      "max": [
        5185
      ],
      "min": [
        0
      ],
      "type": "SCALAR"
    },
    {
      "bufferView": 24,
      "componentType": 5126,
      "count": 5205,
      "max": [
        0.9998711347579956,
        0.9999866485595703,
        0.998894214630127
      ],
      "min": [
        -0.9997380971908569,
        -0.9999868869781494,
        -0.9986640214920044
      ],
      "type": "VEC3"
    },
    {
      "bufferView": 25,
      "componentType": 5126,
      "count": 5205,
      "max": [
        0.024477999657392502,
        0.0167239997535944,
        1.6586819887161255
      ],
      "min": [
        -0.1960970014333725,
        -0.15681099891662598,
        1.0559860467910767
      ],
      "type": "VEC3"
    },
    {
      "bufferView": 26,
      "componentType": 5126,
      "count": 5205,
      "max": [
        0.7806239724159241,
        0.43296000361442566
      ],
      "min": [
        0.6218569874763489,
        0.014902999624609947
      ],
      "type": "VEC2"
    },
    {
      "bufferView": 27,
      "componentType": 5125,
      "count": 28572,
      "max": [
        5204
      ],
      "min": [
        0
      ],
      "type": "SCALAR"
    },
    {
      "bufferView": 28,
      "componentType": 5126,
      "count": 5769,
      "max": [
        0.9999447464942932,
        0.9999529719352722,
        0.9808791279792786
      ],
      "min": [
        -0.9999428987503052,
        -0.9999433755874634,
        -0.9961482286453247
      ],
      "type": "VEC3"
    },
    {
      "bufferView": 29,
      "componentType": 5126,
      "count": 5769,
      "max": [
        -0.1611340045928955,
        0.10270299762487411,
        1.610414981842041
      ],
      "min": [
        -0.32951200008392334,
        -0.1308639943599701,
        1.092283010482788
      ],
      "type": "VEC3"
    },
    {
      "bufferView": 30,
      "componentType": 5126,
      "count": 5769,
      "max": [
        0.9015309810638428,
        0.9737719893455505
      ],
      "min": [
        0.6827470064163208,
        0.6223739981651306
      ],
      "type": "VEC2"
    },
    {
      "bufferView": 31,
      "componentType": 5125,
      "count": 32472,
      "max": [
        5768
      ],
      "min": [
        0
      ],
      "type": "SCALAR"
    },
    {
      "bufferView": 32,
      "componentType": 5126,
      "count": 5807,
      "max": [
        0.9999706149101257,
        0.999978244304657,
        0.9978893399238586
      ],
      "min": [
        -0.999971330165863,
        -0.9998903870582581,
        -0.999568521976471
      ],
      "type": "VEC3"
    },
    {
      "bufferView": 33,
      "componentType": 5126,
      "count": 5807,
      "max": [
        0.3125860095024109,
        0.10369399935007095,
        1.612876057624817
      ],
      "min": [
        0.15866799652576447,
        -0.13462400436401367,
        1.0968639850616455
      ],
      "type": "VEC3"
    },
    {
      "bufferView": 34,
      "componentType": 5126,
      "count": 5807,
      "max": [
        0.22860200703144073,
        0.9667770266532898
      ],
      "min": [
        0.00981799978762865,
        0.6153789758682251
      ],
      "type": "VEC2"
    },
    {
      "bufferView": 35,
      "componentType": 5125,
      "count": 32712,
      "max": [
        5806
      ],
      "min": [
        0
      ],
      "type": "SCALAR"
    },
    {
      "bufferView": 36,
      "componentType": 5126,
      "count": 9773,
      "max": [
        0.9999653697013855,
        0.9999776482582092,
        0.9971415400505066
      ],
      "min": [
        -0.9999809861183167,
        -0.9999773502349854,
        -0.998612642288208
      ],
      "type": "VEC3"
    },
    {
      "bufferView": 37,
      "componentType": 5126,
      "count": 9773,
      "max": [
        0.16992899775505066,
        0.12662699818611145,
        1.5960710048675537
      ],
      "min": [
        -0.170523002743721,
        -0.040437001734972,
        1.0481319427490234
      ],
      "type": "VEC3"
    },
    {
      "bufferView": 38,
      "componentType": 5126,
      "count": 9773,
      "max": [
        0.5834699869155884,
        0.4018619954586029
      ],
      "min": [
        0.2588939964771271,
        0.022109000012278557
      ],
      "type": "VEC2"
    },
    {
      "bufferView": 39,
      "componentType": 5125,
      "count": 56124,
      "max": [
        9772
      ],
      "min": [
        0
      ],
      "type": "SCALAR"
    }
  ],
  "bufferViews": [
    {
      "buffer": 0,
      "byteOffset": 0,
      "byteLength": 7812,
      "target": 34962,
      "byteStride": 12
    },
    {
      "buffer": 0,
      "byteOffset": 7812,
      "byteLength": 7812,
      "target": 34962,
      "byteStride": 12
    },
    {
      "buffer": 0,
      "byteOffset": 15624,
      "byteLength": 5208,
      "target": 34962,
      "byteStride": 8
    },
    {
      "buffer": 0,
      "byteOffset": 20832,
      "byteLength": 6720,
      "target": 34963
    },
    {
      "buffer": 0,
      "byteOffset": 27552,
      "byteLength": 19476,
      "target": 34962,
      "byteStride": 12
    },
    {
      "buffer": 0,
      "byteOffset": 47028,
      "byteLength": 19476,
      "target": 34962,
      "byteStride": 12
    },
    {
      "buffer": 0,
      "byteOffset": 66504,
      "byteLength": 12984,
      "target": 34962,
      "byteStride": 8
    },
    {
      "buffer": 0,
      "byteOffset": 79488,
      "byteLength": 29280,
      "target": 34963
    },
    {
      "buffer": 0,
      "byteOffset": 108768,
      "byteLength": 13020,
      "target": 34962,
      "byteStride": 12
    },
    {
      "buffer": 0,
      "byteOffset": 121788,
      "byteLength": 13020,
      "target": 34962,
      "byteStride": 12
    },
    {
      "buffer": 0,
      "byteOffset": 134808,
      "byteLength": 8680,
      "target": 34962,
      "byteStride": 8
    },
    {
      "buffer": 0,
      "byteOffset": 143488,
      "byteLength": 21984,
      "target": 34963
    },
    {
      "buffer": 0,
      "byteOffset": 165472,
      "byteLength": 13164,
      "target": 34962,
      "byteStride": 12
    },
    {
      "buffer": 0,
      "byteOffset": 178636,
      "byteLength": 13164,
      "target": 34962,
      "byteStride": 12
    },
    {
      "buffer": 0,
      "byteOffset": 191800,
      "byteLength": 8776,
      "target": 34962,
      "byteStride": 8
    },
    {
      "buffer": 0,
      "byteOffset": 200576,
      "byteLength": 22272,
      "target": 34963
    },
    {
      "buffer": 0,
      "byteOffset": 222848,
      "byteLength": 16500,
      "target": 34962,
      "byteStride": 12
    },
    {
      "buffer": 0,
      "byteOffset": 239348,
      "byteLength": 16500,
      "target": 34962,
      "byteStride": 12
    },
    {
      "buffer": 0,
      "byteOffset": 255848,
      "byteLength": 11000,
      "target": 34962,
      "byteStride": 8
    },
    {
      "buffer": 0,
      "byteOffset": 266848,
      "byteLength": 27840,
      "target": 34963
    },
    {
      "buffer": 0,
      "byteOffset": 294688,
      "byteLength": 62232,
      "target": 34962,
      "byteStride": 12
    },
    {
      "buffer": 0,
      "byteOffset": 356920,
      "byteLength": 62232,
      "target": 34962,
      "byteStride": 12
    },
    {
      "buffer": 0,
      "byteOffset": 419152,
      "byteLength": 41488,
      "target": 34962,
      "byteStride": 8
    },
    {
      "buffer": 0,
      "byteOffset": 460640,
      "byteLength": 114000,
      "target": 34963
    },
    {
      "buffer": 0,
      "byteOffset": 574640,
      "byteLength": 62460,
      "target": 34962,
      "byteStride": 12
    },
    {
      "buffer": 0,
      "byteOffset": 637100,
      "byteLength": 62460,
      "target": 34962,
      "byteStride": 12
    },
    {
      "buffer": 0,
      "byteOffset": 699560,
      "byteLength": 41640,
      "target": 34962,
      "byteStride": 8
    },
    {
      "buffer": 0,
      "byteOffset": 741200,
      "byteLength": 114288,
      "target": 34963
    },
    {
      "buffer": 0,
      "byteOffset": 855488,
      "byteLength": 69228,
      "target": 34962,
      "byteStride": 12
    },
    {
      "buffer": 0,
      "byteOffset": 924716,
      "byteLength": 69228,
      "target": 34962,
      "byteStride": 12
    },
    {
      "buffer": 0,
      "byteOffset": 993944,
      "byteLength": 46152,
      "target": 34962,
      "byteStride": 8
    },
    {
      "buffer": 0,
      "byteOffset": 1040096,
      "byteLength": 129888,
      "target": 34963
    },
    {
      "buffer": 0,
      "byteOffset": 1169984,
      "byteLength": 69684,
      "target": 34962,
      "byteStride": 12
    },
    {
      "buffer": 0,
      "byteOffset": 1239668,
      "byteLength": 69684,
      "target": 34962,
      "byteStride": 12
    },
    {
      "buffer": 0,
      "byteOffset": 1309352,
      "byteLength": 46456,
      "target": 34962,
      "byteStride": 8
    },
    {
      "buffer": 0,
      "byteOffset": 1355808,
      "byteLength": 130848,
      "target": 34963
    },
    {
      "buffer": 0,
      "byteOffset": 1486656,
      "byteLength": 117276,
      "target": 34962,
      "byteStride": 12
    },
    {
      "buffer": 0,
      "byteOffset": 1603932,
      "byteLength": 117276,
      "target": 34962,
      "byteStride": 12
    },
    {
      "buffer": 0,
      "byteOffset": 1721208,
      "byteLength": 78184,
      "target": 34962,
      "byteStride": 8
    },
    {
      "buffer": 0,
      "byteOffset": 1799392,
      "byteLength": 224496,
      "target": 34963
    }
  ],
  "buffers": [
    {
      "byteLength": 2023888,
      "uri": "data:application/octet-stream;base64,"
    }
  ],
  "materials": [
    {
      "pbrMetallicRoughness": {
        "baseColorFactor": [
          0.37,
          0.37,
          0.37,
          1
        ],
        "metallicFactor": 0,
        "roughnessFactor": 0.6,
        "baseColorTexture": {
          "index": 0
        }
      },
      "doubleSided": true,
      "name": "Shirt00_1Button_FRONT"
    },
    {
      "pbrMetallicRoughness": {
        "baseColorFactor": [
          0.23,
          0.23,
          0.23,
          1
        ],
        "metallicFactor": 0,
        "roughnessFactor": 0.6,
        "baseColorTexture": {
          "index": 1
        }
      },
      "doubleSided": true,
      "name": "Shirt00_1Material4782"
    }
  ],
  "textures": [
    {
      "sampler": 0,
      "source": 0
    },
    {
      "sampler": 1,
      "source": 1
    }
  ],
  "samplers": [
    {
      "magFilter": 9729,
      "minFilter": 9987
    },
    {
      "magFilter": 9729,
      "minFilter": 9987
    }
  ],
  "images": [
    {
      "mimeType": "image/png",
      "uri": "data:image/jpeg;base64,"
    },
    {
      "mimeType": "image/png",
      "uri": "data:image/png;base64,"
    }
  ]
}